<?xml version="1.0" standalone="no"?>
<!DOCTYPE svg PUBLIC "-//W3C//DTD SVG 20010904//EN"
 "http://www.w3.org/TR/2001/REC-SVG-20010904/DTD/svg10.dtd">
<svg version="1.0" xmlns="http://www.w3.org/2000/svg"
 width="700.000000pt" height="700.000000pt" viewBox="0 0 700.000000 700.000000"
 preserveAspectRatio="xMidYMid meet">
<metadata>
Created by potrace 1.14, written by Peter Selinger 2001-2017
</metadata>
<g transform="translate(0.000000,700.000000) scale(0.100000,-0.100000)"
fill="#000000" stroke="none">
<path d="M184 6505 c-2 -5 -3 -1288 -2 -2850 l3 -2840 2905 -1 c1598 0 2910 1
2916 3 12 4 17 612 5 614 -3 0 -18 2 -33 3 l-28 2 -1 -266 c-1 -146 -1 -270 0
-277 1 -8 -697 -11 -2849 -11 l-2850 0 0 2782 0 2782 2850 0 2850 0 0 -268 0
-268 33 3 32 3 2 297 c1 163 -2 298 -5 298 -4 1 -1316 2 -2916 3 -1931 1
-2910 -2 -2912 -9z"/>
<path d="M5965 5783 c-78 -9 -237 -48 -304 -74 -177 -70 -334 -215 -435 -400
-78 -142 -107 -269 -102 -449 10 -355 174 -633 470 -800 116 -65 255 -97 411
-94 314 5 580 117 744 312 92 111 172 275 198 409 10 48 10 273 1 334 -28 194
-132 399 -261 515 -88 79 -107 94 -184 138 -160 93 -343 130 -538 109z m208
-428 c246 -121 358 -519 221 -787 -119 -232 -418 -271 -610 -80 -122 121 -187
378 -144 562 38 164 129 274 268 327 62 23 196 12 265 -22z"/>
<path d="M4800 5563 c-161 -23 -456 -77 -462 -86 -3 -5 -10 -31 -14 -56 -4
-25 -8 -50 -10 -56 -1 -5 -7 -30 -12 -55 -16 -73 -83 -393 -87 -415 -3 -11
-16 -76 -30 -145 -15 -69 -28 -136 -31 -150 -10 -53 -14 -55 -39 -17 -14 20
-25 38 -25 41 0 2 -22 41 -50 86 -27 45 -50 83 -50 85 0 2 -28 50 -61 107 -64
106 -86 145 -124 213 -13 22 -50 86 -84 143 -34 57 -61 107 -61 111 0 5 -10 7
-22 5 -27 -4 -400 -64 -443 -71 -36 -6 -36 -6 -37 -29 0 -21 11 -183 17 -242
2 -21 6 -83 10 -140 4 -57 8 -122 10 -145 2 -23 7 -89 10 -147 3 -58 8 -125
10 -150 3 -42 8 -105 20 -270 2 -36 7 -99 10 -140 3 -41 7 -104 10 -140 19
-283 24 -342 30 -349 6 -5 321 41 413 61 l53 12 -6 75 c-3 42 -8 99 -10 126
-3 28 -7 77 -9 110 -3 33 -8 89 -11 125 -2 36 -7 95 -10 133 -12 154 -16 205
-21 252 -3 27 -3 47 -1 45 3 -3 49 -88 104 -190 169 -313 190 -351 260 -480
l69 -125 39 3 c42 3 267 40 271 45 2 1 14 65 28 142 26 144 29 161 41 230 3
22 10 60 15 85 5 25 12 62 15 82 2 21 9 57 14 80 11 47 43 236 44 256 1 36 20
-30 90 -318 43 -173 88 -358 100 -410 l23 -95 40 3 c32 2 233 33 378 58 53 9
55 13 39 74 -8 30 -16 62 -18 70 -2 8 -38 150 -80 315 -43 165 -78 307 -80
315 -2 8 -26 103 -53 210 -28 107 -81 312 -117 455 -37 143 -70 262 -73 266
-4 3 -18 3 -32 2z"/>
<path d="M2420 5179 c-570 -92 -542 -86 -536 -107 3 -10 10 -53 16 -97 7 -44
14 -89 16 -100 2 -10 6 -37 9 -60 8 -52 74 -453 80 -484 2 -13 7 -49 11 -80 3
-31 8 -59 10 -62 2 -4 6 -27 9 -50 3 -24 8 -55 10 -69 2 -14 13 -81 25 -150
11 -69 27 -168 35 -220 8 -52 17 -108 20 -125 3 -16 10 -59 16 -95 18 -111 17
-110 44 -110 19 0 224 31 365 55 14 2 97 16 185 30 262 42 459 75 477 81 13 4
15 11 8 37 -5 18 -11 52 -14 77 -4 25 -8 56 -10 70 -3 14 -7 43 -10 65 -11 75
-18 95 -31 95 -8 0 -141 -20 -296 -45 -155 -26 -282 -45 -283 -43 -5 7 -56
332 -52 335 2 2 126 24 276 49 149 24 276 47 281 50 6 3 7 13 5 22 -3 10 -8
35 -11 57 -20 132 -36 232 -41 247 -4 14 -13 16 -47 12 -34 -5 -393 -62 -498
-79 -26 -5 -26 -4 -44 102 -9 59 -18 116 -20 128 -1 11 -5 39 -9 61 l-7 42 68
11 c386 62 509 83 516 88 7 4 6 18 -8 108 -3 17 -7 41 -9 55 -29 186 -27 180
-55 178 -14 -1 -240 -37 -501 -79z"/>
<path d="M965 4942 c-68 -8 -534 -83 -578 -93 -46 -11 -47 -12 -42 -43 3 -17
7 -44 10 -61 3 -16 12 -75 20 -130 8 -55 17 -111 20 -125 2 -14 11 -68 20
-120 8 -52 17 -106 19 -120 6 -34 27 -170 31 -195 1 -11 10 -63 18 -115 9 -52
28 -167 43 -255 14 -88 27 -169 29 -180 7 -47 37 -236 48 -305 10 -56 18 -76
30 -78 29 -6 587 89 672 113 189 55 346 160 453 304 15 20 30 38 33 41 13 11
79 139 99 193 62 167 60 409 -6 605 -58 173 -198 341 -369 445 -72 43 -198 95
-251 102 -22 4 -48 9 -59 12 -23 7 -195 10 -240 5z m95 -387 c81 -21 146 -60
216 -129 107 -107 161 -258 151 -426 -10 -179 -112 -338 -260 -409 -65 -31
-137 -49 -137 -35 0 5 -7 50 -16 99 -8 50 -17 101 -19 115 -2 14 -11 66 -19
115 -8 50 -18 110 -21 135 -6 44 -39 246 -71 439 -13 78 -14 95 -2 102 21 14
115 10 178 -6z"/>
<path d="M5809 3776 c-2 -2 -38 -6 -80 -9 -341 -27 -589 -176 -752 -452 -38
-65 -87 -189 -103 -260 -3 -16 -8 -88 -10 -160 -4 -148 14 -260 65 -390 103
-266 329 -468 596 -535 143 -36 410 -19 580 37 299 98 516 347 580 668 29 143
5 396 -50 530 -75 183 -180 313 -340 419 -134 88 -279 140 -409 145 -33 1 -63
4 -67 6 -3 3 -8 3 -10 1z m51 -418 c131 -41 241 -161 294 -320 115 -344 -38
-669 -324 -686 -83 -5 -123 4 -205 44 -235 114 -336 518 -194 777 87 160 265
237 429 185z"/>
<path d="M3900 3473 c-132 -11 -291 -53 -395 -105 -203 -100 -387 -328 -448
-553 -29 -107 -39 -268 -23 -369 50 -304 179 -514 408 -663 146 -95 290 -133
478 -128 368 10 633 142 801 401 105 160 150 322 144 519 -2 55 -6 111 -9 125
-3 14 -13 59 -22 100 -81 367 -436 663 -809 673 -49 1 -106 1 -125 0z m176
-430 c270 -128 374 -591 189 -843 -72 -98 -204 -158 -323 -147 -121 12 -255
97 -316 202 -60 102 -97 255 -91 375 4 73 5 84 21 145 24 98 116 221 194 261
105 53 224 56 326 7z"/>
<path d="M2777 3264 c-1 -1 -189 -32 -417 -69 -385 -61 -560 -92 -566 -98 -2
-1 5 -52 16 -112 10 -61 21 -128 24 -150 13 -78 15 -91 31 -190 9 -55 18 -111
20 -125 2 -14 7 -41 10 -60 4 -19 8 -49 11 -67 2 -17 21 -139 43 -270 38 -231
45 -272 57 -350 9 -62 54 -336 60 -367 6 -28 6 -28 63 -21 86 11 403 64 408
69 2 2 0 30 -6 62 -6 33 -13 77 -16 99 -4 22 -20 123 -36 225 -17 102 -32 199
-35 215 -2 17 -7 42 -10 57 -7 33 -29 27 266 73 124 20 239 40 255 44 34 8 33
-2 9 151 -35 220 -27 200 -77 193 -23 -3 -148 -22 -277 -43 -129 -21 -236 -37
-237 -37 -1 1 -4 22 -8 47 -3 25 -15 98 -26 164 -11 65 -18 120 -16 122 2 2
116 22 253 44 137 22 271 45 297 51 l48 11 -6 42 c-3 22 -15 94 -26 159 -10
65 -19 123 -19 128 0 8 -85 11 -93 3z"/>
</g>
</svg>
